<svg width="586" height="614" viewBox="0 0 586 614" fill="none" xmlns="http://www.w3.org/2000/svg">
<g clip-path="url(#clip0_2_27)">
<path d="M385.745 470.029H524.317L545.32 485.638V419.554C545.32 416.234 543.99 413.049 541.624 410.702C539.258 408.354 536.049 407.035 532.703 407.035H385.745C382.399 407.035 379.19 408.354 376.824 410.702C374.458 413.049 373.128 416.234 373.128 419.554V457.508C373.128 459.152 373.454 460.78 374.088 462.299C374.722 463.819 375.651 465.199 376.823 466.362C377.994 467.524 379.385 468.447 380.916 469.076C382.447 469.705 384.088 470.029 385.745 470.029Z" fill="#F4F4F4"/>
<path d="M530.493 424.578H387.954C387.817 424.574 387.688 424.516 387.594 424.419C387.499 424.322 387.446 424.192 387.446 424.056C387.446 423.921 387.499 423.791 387.594 423.694C387.688 423.596 387.817 423.539 387.954 423.534H530.493C530.629 423.539 530.758 423.596 530.852 423.694C530.947 423.791 531 423.921 531 424.056C531 424.192 530.947 424.322 530.852 424.419C530.758 424.516 530.629 424.574 530.493 424.578Z" fill="white"/>
<path d="M530.493 440.243H387.954C387.817 440.238 387.688 440.181 387.594 440.083C387.499 439.986 387.446 439.856 387.446 439.721C387.446 439.585 387.499 439.455 387.594 439.358C387.688 439.261 387.817 439.204 387.954 439.199H530.493C530.629 439.204 530.758 439.261 530.852 439.358C530.947 439.455 531 439.585 531 439.721C531 439.856 530.947 439.986 530.852 440.083C530.758 440.181 530.629 440.238 530.493 440.243Z" fill="white"/>
<path d="M530.492 455.907H445.838C445.699 455.907 445.565 455.852 445.466 455.754C445.367 455.656 445.312 455.523 445.312 455.385C445.312 455.246 445.367 455.113 445.466 455.015C445.565 454.917 445.699 454.862 445.838 454.862H530.492C530.632 454.862 530.766 454.917 530.865 455.015C530.963 455.113 531.019 455.246 531.019 455.385C531.019 455.523 530.963 455.656 530.865 455.754C530.766 455.852 530.632 455.907 530.492 455.907Z" fill="white"/>
<path d="M460.723 440.053L459.221 440.216L477.767 608.379L479.269 608.216L460.723 440.053Z" fill="#292A2E"/>
<path d="M508.759 513.465L499.635 603.026L501.138 603.176L510.262 513.616L508.759 513.465Z" fill="#292A2E"/>
<path d="M524.447 592.2H456.748V614H524.447V592.2Z" fill="#292A2E"/>
<path opacity="0.2" d="M524.447 592.2H456.748V614H524.447V592.2Z" fill="white"/>
<path d="M565.259 552.06C578.084 535.148 571.97 509.111 551.603 493.907C531.237 478.702 504.33 480.086 491.505 496.999C478.681 513.911 484.794 539.947 505.161 555.152C525.527 570.357 552.434 568.973 565.259 552.06Z" fill="#0CBC8B"/>
<path opacity="0.2" d="M565.259 552.06C578.084 535.148 571.97 509.111 551.603 493.907C531.237 478.702 504.33 480.086 491.505 496.999C478.681 513.911 484.794 539.947 505.161 555.152C525.527 570.357 552.434 568.973 565.259 552.06Z" fill="white"/>
<path opacity="0.5" d="M565.257 552.063C564.396 553.204 563.456 554.284 562.445 555.297C548.327 564.246 527.49 562.837 510.958 550.493C490.594 535.292 484.482 509.256 497.308 492.343C498.17 491.205 499.108 490.125 500.113 489.109C514.238 480.153 535.069 481.569 551.607 493.908C571.971 509.114 578.083 535.15 565.257 552.063Z" fill="white"/>
<path d="M470.78 487.896C490.956 472.443 496.44 445.94 483.028 428.701C469.617 411.461 442.389 410.013 422.213 425.466C402.037 440.919 396.553 467.422 409.965 484.661C423.376 501.901 450.604 503.349 470.78 487.896Z" fill="#0CBC8B"/>
<path opacity="0.2" d="M464.388 483.461C448.763 495.435 428.905 497.26 414.511 489.465C412.845 488.009 411.324 486.398 409.967 484.655C396.553 467.42 402.037 440.914 422.211 425.465C437.836 413.496 457.694 411.665 472.082 419.454C473.752 420.91 475.275 422.523 476.632 424.271C490.048 441.505 484.563 468.011 464.388 483.461Z" fill="white"/>
<path d="M573.384 234.901H395.129L372.543 251.686V162.836C372.543 159.516 373.873 156.332 376.239 153.984C378.605 151.637 381.814 150.318 385.16 150.318H573.384C576.73 150.318 579.939 151.637 582.305 153.985C584.671 156.332 586 159.516 586 162.836V222.384C585.999 225.703 584.67 228.887 582.304 231.234C579.938 233.582 576.729 234.9 573.384 234.901Z" fill="#F4F4F4"/>
<path d="M570.058 169.142H388.488C388.417 169.144 388.346 169.133 388.28 169.108C388.214 169.082 388.154 169.044 388.103 168.996C388.052 168.947 388.012 168.889 387.984 168.824C387.956 168.759 387.942 168.69 387.942 168.62C387.942 168.55 387.956 168.48 387.984 168.415C388.012 168.351 388.052 168.292 388.103 168.244C388.154 168.195 388.214 168.157 388.28 168.132C388.346 168.107 388.417 168.095 388.488 168.098H570.058C570.194 168.103 570.323 168.16 570.418 168.257C570.512 168.354 570.565 168.484 570.565 168.62C570.565 168.755 570.512 168.885 570.418 168.982C570.323 169.08 570.194 169.137 570.058 169.142Z" fill="white"/>
<path d="M570.058 185.986H388.488C388.417 185.988 388.346 185.977 388.28 185.952C388.214 185.926 388.154 185.888 388.103 185.84C388.052 185.791 388.012 185.733 387.984 185.668C387.956 185.603 387.942 185.534 387.942 185.464C387.942 185.394 387.956 185.324 387.984 185.259C388.012 185.195 388.052 185.136 388.103 185.088C388.154 185.039 388.214 185.001 388.28 184.976C388.346 184.951 388.417 184.939 388.488 184.942H570.058C570.194 184.947 570.323 185.004 570.418 185.101C570.512 185.198 570.565 185.328 570.565 185.464C570.565 185.599 570.512 185.729 570.418 185.826C570.323 185.924 570.194 185.981 570.058 185.986Z" fill="white"/>
<path d="M570.058 202.83H388.488C388.348 202.83 388.214 202.775 388.115 202.677C388.017 202.579 387.961 202.447 387.961 202.308C387.961 202.169 388.017 202.037 388.115 201.939C388.214 201.841 388.348 201.786 388.488 201.786H570.058C570.197 201.786 570.331 201.841 570.43 201.939C570.529 202.037 570.584 202.169 570.584 202.308C570.584 202.447 570.529 202.579 570.43 202.677C570.331 202.775 570.197 202.83 570.058 202.83Z" fill="white"/>
<path d="M538.485 219.674H388.488C388.417 219.677 388.346 219.665 388.28 219.64C388.214 219.615 388.154 219.577 388.103 219.528C388.052 219.48 388.012 219.421 387.984 219.357C387.956 219.292 387.942 219.223 387.942 219.152C387.942 219.082 387.956 219.013 387.984 218.948C388.012 218.883 388.052 218.825 388.103 218.776C388.154 218.728 388.214 218.69 388.28 218.665C388.346 218.639 388.417 218.628 388.488 218.63H538.487C538.557 218.628 538.628 218.639 538.694 218.665C538.76 218.69 538.82 218.728 538.871 218.776C538.922 218.825 538.963 218.883 538.99 218.948C539.018 219.013 539.032 219.082 539.032 219.152C539.032 219.223 539.018 219.292 538.99 219.357C538.963 219.421 538.922 219.48 538.871 219.528C538.82 219.577 538.76 219.615 538.694 219.64C538.628 219.665 538.557 219.677 538.487 219.674H538.485Z" fill="white"/>
<path d="M21.6526 408.829H160.222L181.225 424.438V358.354C181.225 355.033 179.896 351.849 177.53 349.502C175.164 347.154 171.955 345.835 168.609 345.835H21.6526C18.3063 345.835 15.0971 347.153 12.731 349.501C10.3648 351.849 9.03552 355.033 9.03552 358.354V396.308C9.03534 397.952 9.36156 399.58 9.99554 401.099C10.6295 402.618 11.5589 403.999 12.7305 405.161C13.9021 406.324 15.293 407.246 16.8239 407.875C18.3548 408.505 19.9956 408.829 21.6526 408.829Z" fill="#F4F4F4"/>
<path d="M166.4 363.378H23.8613C23.7217 363.378 23.5878 363.323 23.489 363.225C23.3903 363.127 23.3348 362.995 23.3348 362.856C23.3348 362.717 23.3903 362.585 23.489 362.487C23.5878 362.389 23.7217 362.334 23.8613 362.334H166.4C166.539 362.334 166.673 362.389 166.772 362.487C166.871 362.585 166.926 362.717 166.926 362.856C166.926 362.995 166.871 363.127 166.772 363.225C166.673 363.323 166.539 363.378 166.4 363.378Z" fill="white"/>
<path d="M166.4 379.042H23.8614C23.7252 379.037 23.5962 378.98 23.5015 378.883C23.4069 378.785 23.354 378.655 23.354 378.52C23.354 378.385 23.4069 378.255 23.5015 378.157C23.5962 378.06 23.7252 378.003 23.8614 377.998H166.4C166.47 377.995 166.541 378.007 166.607 378.032C166.673 378.057 166.733 378.095 166.784 378.144C166.835 378.193 166.876 378.251 166.903 378.316C166.931 378.38 166.945 378.45 166.945 378.52C166.945 378.59 166.931 378.66 166.903 378.724C166.876 378.789 166.835 378.847 166.784 378.896C166.733 378.945 166.673 378.983 166.607 379.008C166.541 379.033 166.47 379.045 166.4 379.042Z" fill="white"/>
<path d="M166.4 394.706H81.7462C81.6755 394.709 81.605 394.697 81.539 394.672C81.4729 394.647 81.4126 394.609 81.3617 394.56C81.3108 394.511 81.2703 394.453 81.2426 394.388C81.2149 394.324 81.2007 394.254 81.2007 394.184C81.2007 394.114 81.2149 394.044 81.2426 393.98C81.2703 393.915 81.3108 393.857 81.3617 393.808C81.4126 393.759 81.4729 393.721 81.539 393.696C81.605 393.671 81.6755 393.659 81.7462 393.662H166.4C166.47 393.659 166.541 393.671 166.607 393.696C166.673 393.721 166.733 393.759 166.784 393.808C166.835 393.857 166.876 393.915 166.903 393.98C166.931 394.044 166.945 394.114 166.945 394.184C166.945 394.254 166.931 394.324 166.903 394.388C166.876 394.453 166.835 394.511 166.784 394.56C166.733 394.609 166.673 394.647 166.607 394.672C166.541 394.697 166.47 394.709 166.4 394.706Z" fill="white"/>
<path d="M249.241 103.761H27.7047L0 124.354V12.5183C0 9.19826 1.32922 6.01418 3.69524 3.66653C6.06127 1.31889 9.27029 0 12.6164 0L249.241 0C252.588 0 255.797 1.31889 258.163 3.66653C260.529 6.01418 261.858 9.19826 261.858 12.5183V91.2431C261.858 94.5631 260.528 97.7471 258.162 100.095C255.796 102.442 252.587 103.761 249.241 103.761Z" fill="#F4F4F4"/>
<path d="M242.3 22.9739H19.5577C19.4181 22.9739 19.2842 22.9189 19.1854 22.8209C19.0867 22.723 19.0312 22.5901 19.0312 22.4516C19.0312 22.313 19.0867 22.1801 19.1854 22.0822C19.2842 21.9842 19.4181 21.9292 19.5577 21.9292H242.301C242.44 21.9292 242.574 21.9842 242.673 22.0822C242.772 22.1801 242.827 22.313 242.827 22.4516C242.827 22.5901 242.772 22.723 242.673 22.8209C242.574 22.9189 242.44 22.9739 242.301 22.9739H242.3Z" fill="white"/>
<path d="M242.3 43.6369H19.5577C19.487 43.6395 19.4166 43.6279 19.3505 43.6028C19.2844 43.5777 19.2241 43.5396 19.1732 43.4909C19.1223 43.4422 19.0818 43.3838 19.0541 43.3192C19.0265 43.2546 19.0122 43.1851 19.0122 43.1149C19.0122 43.0447 19.0265 42.9753 19.0541 42.9106C19.0818 42.846 19.1223 42.7876 19.1732 42.7389C19.2241 42.6902 19.2844 42.6521 19.3505 42.6271C19.4166 42.602 19.487 42.5903 19.5577 42.5929H242.301C242.371 42.5903 242.442 42.602 242.508 42.6271C242.574 42.6521 242.634 42.6902 242.685 42.7389C242.736 42.7876 242.777 42.846 242.804 42.9106C242.832 42.9753 242.846 43.0447 242.846 43.1149C242.846 43.1851 242.832 43.2546 242.804 43.3192C242.777 43.3838 242.736 43.4422 242.685 43.4909C242.634 43.5396 242.574 43.5777 242.508 43.6028C242.442 43.6279 242.371 43.6395 242.301 43.6369H242.3Z" fill="white"/>
<path d="M242.3 64.302H19.5577C19.487 64.3046 19.4166 64.2929 19.3505 64.2679C19.2844 64.2428 19.2241 64.2047 19.1732 64.156C19.1223 64.1073 19.0818 64.0489 19.0541 63.9843C19.0265 63.9197 19.0122 63.8502 19.0122 63.78C19.0122 63.7098 19.0265 63.6403 19.0541 63.5757C19.0818 63.5111 19.1223 63.4527 19.1732 63.404C19.2241 63.3553 19.2844 63.3172 19.3505 63.2921C19.4166 63.2671 19.487 63.2554 19.5577 63.258H242.301C242.371 63.2554 242.442 63.2671 242.508 63.2921C242.574 63.3172 242.634 63.3553 242.685 63.404C242.736 63.4527 242.777 63.5111 242.804 63.5757C242.832 63.6403 242.846 63.7098 242.846 63.78C242.846 63.8502 242.832 63.9197 242.804 63.9843C242.777 64.0489 242.736 64.1073 242.685 64.156C242.634 64.2047 242.574 64.2428 242.508 64.2679C242.442 64.2929 242.371 64.3046 242.301 64.302H242.3Z" fill="white"/>
<path d="M131.231 84.9644H19.5577C19.487 84.9669 19.4166 84.9553 19.3505 84.9302C19.2844 84.9051 19.2241 84.8671 19.1732 84.8184C19.1223 84.7696 19.0818 84.7112 19.0541 84.6466C19.0265 84.582 19.0122 84.5125 19.0122 84.4423C19.0122 84.3722 19.0265 84.3027 19.0541 84.2381C19.0818 84.1735 19.1223 84.1151 19.1732 84.0664C19.2241 84.0176 19.2844 83.9796 19.3505 83.9545C19.4166 83.9294 19.487 83.9178 19.5577 83.9203H131.231C131.367 83.9252 131.496 83.9824 131.591 84.0797C131.686 84.1771 131.739 84.3071 131.739 84.4423C131.739 84.5776 131.686 84.7076 131.591 84.805C131.496 84.9023 131.367 84.9595 131.231 84.9644Z" fill="white"/>
<path d="M109.61 82.7597C109.61 82.7597 101.922 76.1568 100.858 62.0638C100.035 51.1517 109.61 58.822 109.61 58.822C109.61 58.822 109.094 50.9597 114.762 52.1134C120.43 53.2672 123.084 61.6669 123.084 61.6669" fill="#0C0C0C"/>
<path d="M144.28 54.9919C144.28 54.9919 172.468 59.9003 159.628 97.3949H151.981" fill="#0C0C0C"/>
<path d="M112.531 136.375C112.657 136.359 114.045 159.218 140.808 157.225C159.337 155.848 165.943 136.343 166.371 136.343C164.373 135.922 161.905 135.282 160.924 135.063C158.785 134.571 156.849 133.444 155.371 131.833C153.894 130.222 152.947 128.202 152.654 126.044C152.113 122.804 153.031 106.227 152.749 102.949L124.308 109.248C124.706 116.171 127.487 132.222 117.739 135.063C116.113 135.533 114.366 135.965 112.531 136.375Z" fill="#E98862"/>
<path opacity="0.52" d="M123.906 128.503C124.352 127.079 124.639 125.61 124.762 124.123C125.074 120.731 125.012 117.315 124.576 113.937C130.356 113.162 135.802 110.795 140.294 107.103C140.823 109.039 143.727 117.494 142.923 119.334C141.402 122.811 134.26 128.503 123.906 128.503Z" fill="#0C0C0C"/>
<path d="M128.954 122.983C140.215 122.73 154.089 116.603 155.301 101.538L156.394 87.9436C157.606 72.8765 150.614 60.0319 136.317 58.9001C122.022 57.7683 110.354 69.1349 109.142 84.2007L108.658 90.2189C108.529 92.2881 108.541 94.3636 108.696 96.4311C109.064 101.898 109.645 110.21 112.975 116.032C116.119 121.526 121.759 123.141 128.954 122.983Z" fill="#E98862"/>
<path opacity="0.52" d="M124.69 108.853C122.373 108.803 120.1 108.213 118.054 107.131C117.971 107.087 117.908 107.012 117.879 106.922C117.85 106.833 117.858 106.735 117.901 106.651C117.944 106.567 118.019 106.503 118.109 106.473C118.199 106.444 118.297 106.45 118.383 106.491C122.797 108.716 126.941 108.709 130.37 106.471C130.439 106.423 130.51 106.379 130.584 106.34C130.626 106.319 130.673 106.307 130.72 106.304C130.768 106.301 130.815 106.307 130.86 106.323C130.905 106.338 130.947 106.362 130.982 106.393C131.018 106.425 131.047 106.462 131.068 106.505C131.089 106.547 131.101 106.593 131.104 106.64C131.107 106.687 131.101 106.735 131.085 106.779C131.07 106.824 131.045 106.865 131.014 106.9C130.983 106.936 130.944 106.965 130.902 106.985C130.874 107 130.832 107.03 130.768 107.071C128.966 108.252 126.85 108.872 124.69 108.853Z" fill="#0C0C0C"/>
<path opacity="0.52" d="M124.567 112.256C124.148 112.254 123.73 112.217 123.318 112.144C123.27 112.137 123.224 112.121 123.182 112.096C123.141 112.071 123.105 112.038 123.077 111.999C123.048 111.96 123.028 111.916 123.017 111.869C123.006 111.823 123.005 111.774 123.013 111.727C123.021 111.679 123.039 111.634 123.065 111.594C123.092 111.554 123.126 111.519 123.166 111.492C123.206 111.465 123.251 111.446 123.298 111.436C123.346 111.427 123.395 111.427 123.442 111.436C125.925 111.866 127.195 110.809 127.248 110.763C127.32 110.7 127.415 110.669 127.511 110.675C127.606 110.681 127.696 110.725 127.759 110.797C127.822 110.868 127.854 110.962 127.848 111.057C127.842 111.152 127.798 111.241 127.726 111.304C126.815 111.974 125.699 112.31 124.567 112.256Z" fill="#0C0C0C"/>
<path d="M113.383 91.2293C114.358 91.2293 115.149 90.4449 115.149 89.4771C115.149 88.5094 114.358 87.7249 113.383 87.7249C112.407 87.7249 111.617 88.5094 111.617 89.4771C111.617 90.4449 112.407 91.2293 113.383 91.2293Z" fill="#0C0C0C"/>
<path d="M129.753 91.3397C130.729 91.3397 131.519 90.5552 131.519 89.5875C131.519 88.6198 130.729 87.8353 129.753 87.8353C128.778 87.8353 127.987 88.6198 127.987 89.5875C127.987 90.5552 128.778 91.3397 129.753 91.3397Z" fill="#0C0C0C"/>
<path d="M154.044 106.055C158.389 106.398 162.281 102.066 162.628 97.7555C162.975 93.445 159.644 90.7886 155.3 90.4444L152.828 93.1557L150.309 105.759L154.044 106.055Z" fill="#E98862"/>
<path d="M150.186 98.8345C150.186 98.8345 150.159 77.401 143.728 75.6502C139.444 74.4848 128.501 79.8956 118.871 77.401C114.657 76.3096 110.537 77.0884 109.99 79.0613C109.773 79.8421 107.883 68.2856 115.149 60.0929C120.933 53.5702 138.476 52.7859 146.246 55.5685C167.758 63.2703 156.133 91.4446 156.133 91.4446L154.658 98.7351L150.186 98.8345Z" fill="#0C0C0C"/>
<g opacity="0.52">
<path d="M122.402 103.643H122.375C120.974 103.536 118.637 103.201 118.717 102.161C118.786 101.3 121.883 92.1857 122.236 91.1491C122.269 91.0622 122.334 90.9912 122.418 90.9513C122.502 90.9113 122.599 90.9056 122.687 90.9352C122.775 90.9649 122.849 91.0277 122.891 91.1102C122.933 91.1926 122.942 91.2883 122.914 91.3767C121.539 95.4131 119.476 101.631 119.43 102.216C119.549 102.472 120.979 102.824 122.428 102.935C122.52 102.943 122.605 102.986 122.666 103.054C122.726 103.122 122.758 103.211 122.755 103.302C122.752 103.393 122.713 103.479 122.647 103.543C122.582 103.607 122.494 103.643 122.402 103.644V103.643Z" fill="#0C0C0C"/>
</g>
<path d="M118.349 84.0965C117.219 83.6339 115.986 83.4748 114.774 83.6351C114.157 83.7118 113.554 83.881 112.988 84.1369C112.41 84.3951 111.866 84.7242 111.371 85.1166L111.332 85.1454C111.203 85.2278 111.048 85.2602 110.897 85.2363C110.746 85.2124 110.609 85.1339 110.512 85.0159C110.416 84.8979 110.366 84.7487 110.374 84.5968C110.381 84.445 110.445 84.3013 110.553 84.1932C111.102 83.6869 111.713 83.2514 112.373 82.8968C113.041 82.5344 113.76 82.2733 114.507 82.1222C115.254 81.9633 116.02 81.9068 116.783 81.9542C117.569 81.9951 118.344 82.147 119.087 82.4053C119.316 82.4888 119.504 82.6587 119.608 82.8782C119.712 83.0978 119.725 83.3493 119.644 83.5783C119.563 83.8072 119.394 83.9952 119.174 84.1014C118.954 84.2077 118.701 84.2236 118.469 84.1459C118.446 84.1383 118.425 84.1294 118.403 84.1205L118.349 84.0965Z" fill="#0C0C0C"/>
<path d="M128.713 82.5513C130.186 82.049 131.768 81.9517 133.293 82.2696C134.039 82.4206 134.758 82.6817 135.427 83.0442C136.086 83.3988 136.697 83.8345 137.246 84.3412C137.365 84.446 137.439 84.5923 137.452 84.7498C137.465 84.9072 137.417 85.0636 137.317 85.1864C137.216 85.3092 137.072 85.389 136.914 85.409C136.756 85.4291 136.597 85.3879 136.469 85.2941L136.428 85.2639C135.932 84.8716 135.389 84.5424 134.811 84.2843C134.245 84.0282 133.642 83.8588 133.025 83.7818C132.411 83.6972 131.788 83.6972 131.174 83.7818C130.58 83.8573 129.999 84.0121 129.446 84.2418L129.395 84.2644C129.283 84.3135 129.163 84.3403 129.041 84.3432C128.918 84.3461 128.797 84.3251 128.683 84.2815C128.569 84.2378 128.465 84.1723 128.376 84.0887C128.288 84.0051 128.217 83.905 128.168 83.7942C128.118 83.6834 128.091 83.5639 128.088 83.4428C128.085 83.3216 128.106 83.2011 128.15 83.088C128.194 82.975 128.261 82.8716 128.345 82.7839C128.429 82.6962 128.53 82.6257 128.642 82.5767C128.669 82.5685 128.693 82.5595 128.713 82.5513Z" fill="#0C0C0C"/>
<path d="M130.226 61.1937C131.533 56.559 130.02 52.0874 126.847 51.2062C123.674 50.325 120.041 53.3679 118.734 58.0026C117.427 62.6373 118.94 67.1089 122.113 67.9901C125.286 68.8713 128.918 65.8284 130.226 61.1937Z" fill="#0C0C0C"/>
<path d="M157.829 522.547C157.829 522.547 176.207 532.642 172.516 548.402C168.825 564.163 182.262 564.455 182.262 564.455L199.912 505.27L170.111 496.52L157.829 522.547Z" fill="#2E8BC0"/>
<path d="M87.2746 269.938C87.2746 269.938 53.135 404.232 62.5269 424.112C71.76 443.654 167.373 530.486 167.373 530.486L184.598 498.724L111.383 411.02C111.383 411.02 132.187 363.513 144.18 326.985C151.41 304.966 159.255 285.217 160.41 262.088L87.2746 269.938Z" fill="#262626"/>
<path d="M137.627 441.789L127.771 430.651L130.336 496.028L141.322 506.389L137.627 441.789Z" fill="#0A0A0A"/>
<path d="M136.193 350.127C136.193 350.127 137.989 313.631 134.569 320.632C128.398 333.272 126.785 374.021 126.785 374.021L136.193 350.127Z" fill="#0A0A0A"/>
<path d="M149.089 581.208C149.089 581.208 145.734 598.461 129.456 599.421C113.178 600.381 116.709 613.249 116.709 613.249H178.913V582.411L149.089 581.208Z" fill="#2E8BC0"/>
<path d="M198.331 266.531C198.331 266.531 198.607 265.26 198.77 272.693C199.734 316.559 181.658 592.215 181.658 592.215L140.783 591.872L129.84 264.749L198.331 266.531Z" fill="#262626"/>
<path d="M79.2796 186.701C80.1225 196.527 86.2963 257.835 87.1067 269.938H198.809C199.44 259.022 200.201 211.286 202.594 189.938C204.878 169.567 209.359 158.631 206.075 152.608C200.706 142.765 186.039 137.815 176.037 136.471C169.93 135.648 160.744 135.062 160.744 135.062C160.744 135.062 159.966 150.674 141.42 151.543C116.175 152.725 117.861 135.062 117.736 135.062C108.57 135.062 91.223 137.238 84.5656 141.73C69.5968 151.831 77.4902 165.876 79.2796 186.701Z" fill="#2E8BC0"/>
<path d="M85.8963 148.401L59.885 175.102L36.1971 165.603L11.0902 227.241L10.9347 227.609C9.21133 231.866 9.05436 236.59 10.4914 240.95C11.9284 245.311 14.8675 249.03 18.7928 251.454C22.7181 253.879 27.3787 254.854 31.9564 254.208C36.5341 253.563 40.7363 251.338 43.8252 247.924L112.016 172.545L85.8963 148.401Z" fill="#2E8BC0"/>
<path d="M108.799 140.274C108.596 139.954 108.329 139.679 108.016 139.466C107.702 139.252 107.348 139.103 106.975 139.03C106.602 138.956 106.218 138.959 105.845 139.038C105.473 139.116 105.121 139.269 104.811 139.487C104.225 139.93 103.83 140.578 103.706 141.299C103.583 142.019 103.739 142.76 104.145 143.37L105.438 145.236L91.2196 136.35C90.9261 136.167 90.5991 136.043 90.2571 135.985C89.9152 135.927 89.5652 135.936 89.2269 136.012C88.8886 136.089 88.5688 136.23 88.2857 136.429C88.0026 136.628 87.7618 136.88 87.5769 137.171C87.392 137.463 87.2668 137.787 87.2083 138.126C87.1499 138.466 87.1593 138.813 87.2361 139.149C87.313 139.484 87.4557 139.802 87.6561 140.082C87.8565 140.363 88.1107 140.602 88.4042 140.786L94.3252 144.488C94.31 144.5 94.2964 144.515 94.2844 144.531C93.6063 144.278 92.8558 144.296 92.1906 144.58C91.5254 144.865 90.9971 145.394 90.7166 146.057C90.4732 146.667 90.4498 147.342 90.6504 147.967C90.851 148.593 91.2632 149.13 91.8172 149.489L92.6055 150.018C92.5997 150.05 92.5997 150.082 92.6055 150.114C91.992 149.88 91.315 149.867 90.6932 150.079C90.0714 150.29 89.5445 150.712 89.205 151.271C88.8471 151.91 88.7472 152.66 88.9255 153.369C89.1038 154.079 89.5469 154.694 90.1653 155.092L92.1088 156.399C92.0659 156.4 92.0241 156.412 91.987 156.434C91.95 156.455 91.919 156.486 91.8967 156.522C91.8729 156.564 91.8618 156.611 91.8649 156.659C91.2715 156.601 90.6749 156.733 90.1624 157.035C89.6499 157.338 89.2483 157.795 89.0164 158.34C88.773 158.95 88.7496 159.625 88.9501 160.251C89.1507 160.876 89.5629 161.413 90.117 161.772L100.64 168.872C102.966 170.436 105.709 171.274 108.518 171.28C111.327 171.287 114.075 170.46 116.407 168.907L123.919 163.907L108.799 140.274Z" fill="#E98862"/>
<g opacity="0.2">
<path d="M100.232 148.468C100.202 148.462 100.173 148.451 100.147 148.435L94.3527 144.907C94.3233 144.889 94.2977 144.866 94.2774 144.838C94.2572 144.81 94.2426 144.778 94.2347 144.745C94.2185 144.678 94.2301 144.607 94.2667 144.548C94.3034 144.489 94.3621 144.446 94.4301 144.43C94.498 144.414 94.5696 144.426 94.6291 144.462L100.422 147.99C100.476 148.022 100.516 148.071 100.536 148.13C100.557 148.188 100.555 148.252 100.533 148.31C100.51 148.367 100.467 148.415 100.412 148.444C100.357 148.474 100.294 148.483 100.233 148.47L100.232 148.468Z" fill="#0C0C0C"/>
<path d="M97.3464 153.125C97.3153 153.118 97.2856 153.106 97.2587 153.09L92.7271 150.279C92.6735 150.24 92.6366 150.183 92.6239 150.118C92.6112 150.053 92.6235 149.986 92.6584 149.93C92.6934 149.874 92.7483 149.834 92.8123 149.816C92.8763 149.799 92.9446 149.806 93.0035 149.836L97.535 152.647C97.5891 152.678 97.63 152.728 97.6504 152.787C97.6708 152.846 97.6693 152.91 97.6462 152.968C97.6231 153.026 97.58 153.074 97.5245 153.103C97.469 153.132 97.4049 153.14 97.3437 153.127L97.3464 153.125Z" fill="#0C0C0C"/>
<path d="M94.2457 158.185C94.2166 158.179 94.1888 158.169 94.1634 158.154L91.992 156.877C91.9606 156.86 91.9331 156.838 91.9109 156.81C91.8886 156.783 91.8723 156.751 91.8627 156.717C91.8532 156.683 91.8506 156.648 91.8553 156.613C91.8599 156.578 91.8717 156.544 91.8898 156.514C91.9079 156.483 91.932 156.457 91.9606 156.436C91.9893 156.415 92.0219 156.4 92.0565 156.392C92.0911 156.384 92.1269 156.383 92.1619 156.39C92.1969 156.396 92.2303 156.409 92.26 156.428L94.4308 157.704C94.4834 157.736 94.5232 157.785 94.5431 157.843C94.563 157.901 94.5618 157.964 94.5398 158.021C94.5178 158.078 94.4763 158.126 94.4225 158.156C94.3688 158.185 94.3062 158.196 94.2457 158.184V158.185Z" fill="#0C0C0C"/>
</g>
<path d="M62.4973 175.067H84.5767C85.1467 175.067 85.7096 174.942 86.2249 174.7C86.7402 174.458 87.195 174.106 87.5566 173.669C87.9182 173.232 88.1775 172.721 88.316 172.172C88.4544 171.623 88.4686 171.051 88.3573 170.496L79.6217 126.938C79.4464 126.064 78.9697 125.279 78.2737 124.717C77.5777 124.155 76.7059 123.852 75.8087 123.86L54.2916 124.039C53.7285 124.044 53.1733 124.171 52.665 124.412C52.1568 124.653 51.7079 125.001 51.3498 125.432C50.9918 125.863 50.7333 126.367 50.5926 126.908C50.4518 127.449 50.4322 128.014 50.5352 128.564L58.7084 171.942C58.8728 172.82 59.3417 173.613 60.0337 174.184C60.7258 174.755 61.5973 175.067 62.4973 175.067Z" fill="#262626"/>
<path d="M79.5042 150.809C79.1662 150.306 78.6741 149.923 78.1004 149.718C77.5267 149.513 76.9018 149.497 76.3178 149.671C76.3173 149.635 76.308 149.601 76.2909 149.57C76.2737 149.539 76.2492 149.513 76.2194 149.493C76.1896 149.474 76.1555 149.462 76.1201 149.459C76.0846 149.455 76.0488 149.461 76.0159 149.474L77.73 147.777C78.272 147.263 78.5966 146.563 78.6385 145.819C78.6803 145.076 78.4361 144.345 77.9553 143.773C77.5077 143.278 76.8988 142.956 76.2353 142.862C75.5718 142.768 74.8963 142.91 74.3274 143.261C74.3274 143.233 74.3053 143.21 74.2963 143.182L75.0024 142.485C75.4874 142.021 75.7962 141.405 75.8763 140.742C75.9565 140.078 75.8033 139.407 75.4425 138.843C75.2089 138.494 74.9001 138.2 74.5384 137.984C74.1767 137.767 73.7711 137.633 73.3508 137.591C72.9305 137.549 72.5061 137.6 72.108 137.74C71.71 137.881 71.3484 138.107 71.0491 138.403L69.4207 140.015C69.4138 140.005 69.4165 139.991 69.4083 139.982C69.4 139.973 69.3785 139.973 69.3661 139.964C69.7117 139.422 69.8616 138.78 69.7912 138.143C69.7207 137.506 69.4342 136.911 68.9785 136.457C67.8779 135.208 65.9144 135.818 64.8615 136.86L54.9258 146.515L55.2291 146.065L56.6351 142.508C56.9233 141.82 56.9377 141.05 56.6754 140.353C56.4131 139.655 55.8937 139.083 55.2222 138.75C54.8696 138.591 54.488 138.505 54.1007 138.496C53.7133 138.488 53.3284 138.558 52.9692 138.703C52.6101 138.847 52.2844 139.062 52.0119 139.336C51.7394 139.609 51.5259 139.934 51.3843 140.292L43.1627 160.473C43.1627 160.473 60.4419 172.881 64.5858 168.779L79.0655 154.452C79.5507 153.988 79.8595 153.372 79.9394 152.708C80.0194 152.044 79.8656 151.374 79.5042 150.809Z" fill="#E98862"/>
<g opacity="0.2">
<path d="M59.8857 149.115C59.9349 149.162 60.0009 149.189 60.0695 149.189C60.1382 149.189 60.2041 149.162 60.2533 149.115L69.4014 140.35C69.4274 140.326 69.4484 140.298 69.4632 140.266C69.478 140.234 69.4861 140.2 69.4873 140.165C69.4884 140.13 69.4825 140.095 69.4698 140.063C69.4572 140.03 69.438 140 69.4136 139.975C69.3891 139.95 69.3598 139.93 69.3274 139.916C69.295 139.903 69.2602 139.896 69.225 139.895C69.1898 139.895 69.1549 139.902 69.1224 139.916C69.0899 139.929 69.0605 139.949 69.0359 139.974L59.8878 148.741C59.8629 148.765 59.843 148.794 59.8293 148.825C59.8155 148.857 59.8081 148.89 59.8075 148.925C59.807 148.959 59.8132 148.993 59.8259 149.025C59.8386 149.057 59.8575 149.086 59.8816 149.111L59.8857 149.115Z" fill="#0C0C0C"/>
<path d="M63.6705 153.225C63.7197 153.272 63.7856 153.299 63.8543 153.299C63.9229 153.299 63.9889 153.272 64.0381 153.225L74.2473 143.443C74.2723 143.419 74.2922 143.391 74.306 143.359C74.3199 143.328 74.3273 143.294 74.328 143.26C74.3286 143.225 74.3224 143.191 74.3098 143.159C74.2971 143.127 74.2783 143.098 74.2542 143.073C74.2046 143.026 74.1384 142.998 74.0693 142.997C74.0001 142.996 73.9331 143.021 73.8819 143.067L63.6726 152.851C63.6225 152.899 63.5937 152.965 63.5926 153.034C63.5914 153.104 63.6179 153.171 63.6664 153.22L63.6705 153.225Z" fill="#0C0C0C"/>
<path d="M67.744 157.7C67.7931 157.747 67.8591 157.774 67.9277 157.774C67.9964 157.774 68.0624 157.747 68.1115 157.7L76.2557 149.896C76.2818 149.873 76.3028 149.844 76.3175 149.813C76.3323 149.781 76.3404 149.746 76.3415 149.711C76.3426 149.676 76.3366 149.642 76.3239 149.609C76.3112 149.576 76.292 149.547 76.2674 149.522C76.2429 149.496 76.2136 149.477 76.1811 149.463C76.1487 149.449 76.1138 149.442 76.0786 149.442C76.0433 149.442 76.0084 149.449 75.976 149.463C75.9435 149.476 75.9141 149.496 75.8896 149.521L67.746 157.327C67.6959 157.376 67.667 157.442 67.6657 157.511C67.6644 157.58 67.6908 157.647 67.7391 157.697L67.744 157.7Z" fill="#0C0C0C"/>
</g>
<path d="M40.3432 155.1L72.0004 167.359L47.9181 236.349L10.8539 226.746L40.3432 155.1Z" fill="#2E8BC0"/>
<path d="M147.323 248.574C143.836 248.574 140.412 247.657 137.399 245.918C134.386 244.178 131.891 241.677 130.168 238.67L94.3881 172.51L124.187 153.613L146.959 191.872L171.574 149.672L203.536 172.94L164.651 238.363C162.968 241.426 160.491 243.987 157.476 245.782C154.46 247.577 151.017 248.539 147.501 248.571L147.323 248.574Z" fill="#2E8BC0"/>
<path d="M147.323 248.834C143.791 248.83 140.323 247.9 137.27 246.138C134.217 244.375 131.688 241.844 129.939 238.799L94.1559 172.633C94.1246 172.575 94.1165 172.508 94.1333 172.444C94.1501 172.381 94.1905 172.326 94.2464 172.29L124.045 153.393C124.075 153.373 124.108 153.36 124.143 153.355C124.178 153.349 124.214 153.35 124.248 153.359C124.283 153.367 124.315 153.382 124.343 153.403C124.372 153.423 124.395 153.45 124.413 153.48L146.958 191.357L163.842 162.709C163.878 162.65 163.936 162.606 164.003 162.589C164.071 162.571 164.143 162.581 164.203 162.616C164.263 162.651 164.307 162.708 164.325 162.775C164.342 162.842 164.332 162.914 164.297 162.973L147.186 192.004C147.163 192.043 147.13 192.076 147.09 192.098C147.05 192.121 147.005 192.133 146.959 192.133C146.913 192.133 146.868 192.121 146.829 192.099C146.789 192.076 146.756 192.044 146.733 192.005L124.099 153.978L94.7362 172.6L130.401 238.547C132.104 241.51 134.567 243.974 137.538 245.689C140.51 247.404 143.886 248.309 147.324 248.313H147.5C150.969 248.28 154.366 247.33 157.341 245.559C160.315 243.788 162.76 241.261 164.421 238.239L199.245 179.327C199.28 179.267 199.338 179.224 199.406 179.206C199.473 179.189 199.545 179.199 199.605 179.234C199.666 179.269 199.709 179.326 199.727 179.393C199.745 179.46 199.735 179.531 199.7 179.591L164.879 238.495C163.172 241.597 160.662 244.19 157.608 246.008C154.554 247.825 151.066 248.801 147.505 248.834L147.323 248.834Z" fill="#0C0C0C"/>
<path d="M155.404 206.959C155.357 206.959 155.312 206.947 155.272 206.923C155.231 206.9 155.198 206.867 155.175 206.826L146.73 191.998C146.698 191.938 146.691 191.868 146.71 191.802C146.729 191.737 146.773 191.682 146.833 191.648C146.893 191.615 146.963 191.606 147.029 191.623C147.096 191.64 147.153 191.682 147.188 191.741L155.633 206.569C155.668 206.63 155.677 206.701 155.658 206.768C155.639 206.835 155.595 206.891 155.534 206.926C155.494 206.948 155.45 206.959 155.404 206.959Z" fill="#0C0C0C"/>
<path d="M54.6349 219.142C54.5932 219.142 54.5521 219.132 54.515 219.114C54.4778 219.095 54.4458 219.068 54.4214 219.034C54.3971 219 54.3812 218.962 54.375 218.921C54.3689 218.88 54.3727 218.838 54.3862 218.799L72.301 167.477C72.3123 167.444 72.33 167.414 72.3529 167.389C72.3759 167.363 72.4038 167.342 72.4349 167.327C72.466 167.312 72.4998 167.304 72.5343 167.302C72.5688 167.299 72.6034 167.304 72.636 167.316C72.6687 167.327 72.6988 167.344 72.7246 167.367C72.7505 167.39 72.7715 167.418 72.7866 167.448C72.8017 167.479 72.8105 167.513 72.8125 167.547C72.8145 167.581 72.8097 167.616 72.7984 167.648L54.8836 218.97C54.8651 219.02 54.8313 219.064 54.7867 219.095C54.7422 219.126 54.6892 219.142 54.6349 219.142Z" fill="#0C0C0C"/>
<path d="M80.5751 207.645C80.5087 207.645 80.4449 207.62 80.3964 207.575C80.3478 207.53 80.3181 207.468 80.3132 207.403L79.2769 193.327C79.272 193.258 79.2948 193.19 79.3404 193.138C79.386 193.085 79.4506 193.053 79.5201 193.048C79.5894 193.044 79.6576 193.067 79.7101 193.112C79.7627 193.157 79.7956 193.221 79.802 193.289L80.8383 207.364C80.8433 207.434 80.8204 207.502 80.7746 207.554C80.7289 207.607 80.6641 207.639 80.5944 207.644L80.5751 207.645Z" fill="#0C0C0C"/>
<path d="M571.016 613.979H43.9592C43.8885 613.981 43.818 613.97 43.752 613.945C43.6859 613.919 43.6256 613.881 43.5747 613.833C43.5238 613.784 43.4833 613.726 43.4556 613.661C43.428 613.596 43.4137 613.527 43.4137 613.457C43.4137 613.387 43.428 613.317 43.4556 613.252C43.4833 613.188 43.5238 613.129 43.5747 613.081C43.6256 613.032 43.6859 612.994 43.752 612.969C43.818 612.944 43.8885 612.932 43.9592 612.935H571.016C571.087 612.932 571.157 612.944 571.223 612.969C571.289 612.994 571.35 613.032 571.401 613.081C571.451 613.129 571.492 613.188 571.52 613.252C571.547 613.317 571.562 613.387 571.562 613.457C571.562 613.527 571.547 613.596 571.52 613.661C571.492 613.726 571.451 613.784 571.401 613.833C571.35 613.881 571.289 613.919 571.223 613.945C571.157 613.97 571.087 613.981 571.016 613.979Z" fill="#292A2E"/>
<path d="M432.199 42.414H229.582C212.821 42.414 199.233 55.8963 199.233 72.5276V545.132C199.233 561.764 212.821 575.246 229.582 575.246H432.199C448.96 575.246 462.548 561.764 462.548 545.132V72.5276C462.548 55.8963 448.96 42.414 432.199 42.414Z" fill="#292A2E"/>
<path d="M432.104 51.818H229.678C218.169 51.818 208.838 61.0759 208.838 72.4961V544.463C208.838 555.883 218.169 565.141 229.678 565.141H432.104C443.614 565.141 452.944 555.883 452.944 544.463V72.4961C452.944 61.0759 443.614 51.818 432.104 51.818Z" fill="white"/>
<path d="M280.897 47.9297H380.888V58.1954C380.888 59.6536 380.598 61.0975 380.036 62.4446C379.473 63.7918 378.649 65.0158 377.609 66.0467C376.57 67.0776 375.336 67.8952 373.978 68.4529C372.62 69.0105 371.165 69.2973 369.695 69.2967H292.085C289.118 69.2967 286.272 68.1271 284.174 66.0452C282.075 63.9633 280.897 61.1397 280.897 58.1954V47.9297Z" fill="#292A2E"/>
<path d="M392.475 166.651H239.85L220.469 181.054V105.144C220.469 103.69 220.758 102.25 221.319 100.906C221.88 99.5622 222.702 98.3413 223.739 97.3129C224.775 96.2845 226.006 95.4688 227.36 94.9123C228.714 94.3558 230.165 94.0694 231.631 94.0695H392.475C393.94 94.0694 395.392 94.3558 396.746 94.9123C398.1 95.4688 399.331 96.2845 400.367 97.3129C401.404 98.3413 402.226 99.5622 402.787 100.906C403.348 102.25 403.637 103.69 403.637 105.144V155.575C403.637 157.029 403.348 158.469 402.787 159.813C402.227 161.157 401.404 162.378 400.368 163.407C399.331 164.435 398.101 165.251 396.746 165.808C395.392 166.364 393.941 166.651 392.475 166.651Z" fill="#B1D4E0"/>
<path opacity="0.49" d="M403.637 166.649H239.85L220.469 181.053V94.0695H403.637V166.649Z" fill="white"/>
<path d="M389.956 110.255H234.15C234.021 110.255 233.897 110.205 233.806 110.114C233.715 110.024 233.664 109.902 233.664 109.774C233.664 109.646 233.715 109.524 233.806 109.433C233.897 109.343 234.021 109.292 234.15 109.292H389.956C390.085 109.292 390.208 109.343 390.299 109.433C390.391 109.524 390.442 109.646 390.442 109.774C390.442 109.902 390.391 110.024 390.299 110.114C390.208 110.205 390.085 110.255 389.956 110.255Z" fill="white"/>
<path d="M389.956 124.71H234.15C234.021 124.71 233.897 124.659 233.806 124.569C233.715 124.478 233.664 124.356 233.664 124.228C233.664 124.1 233.715 123.978 233.806 123.888C233.897 123.797 234.021 123.746 234.15 123.746H389.956C390.085 123.746 390.208 123.797 390.299 123.888C390.391 123.978 390.442 124.1 390.442 124.228C390.442 124.356 390.391 124.478 390.299 124.569C390.208 124.659 390.085 124.71 389.956 124.71Z" fill="white"/>
<path d="M389.956 139.161H234.15C234.021 139.161 233.897 139.11 233.806 139.02C233.715 138.93 233.664 138.807 233.664 138.679C233.664 138.551 233.715 138.429 233.806 138.338C233.897 138.248 234.021 138.197 234.15 138.197H389.956C390.085 138.197 390.209 138.248 390.3 138.338C390.391 138.429 390.442 138.551 390.442 138.679C390.442 138.807 390.391 138.93 390.3 139.02C390.209 139.11 390.085 139.161 389.956 139.161Z" fill="white"/>
<path d="M312.264 153.618H234.15C234.021 153.618 233.897 153.567 233.806 153.477C233.715 153.387 233.664 153.264 233.664 153.136C233.664 153.008 233.715 152.886 233.806 152.795C233.897 152.705 234.021 152.654 234.15 152.654H312.264C312.393 152.654 312.517 152.705 312.608 152.795C312.699 152.886 312.75 153.008 312.75 153.136C312.75 153.264 312.699 153.387 312.608 153.477C312.517 153.567 312.393 153.618 312.264 153.618Z" fill="white"/>
<path d="M291.568 475.814H419.914L439.295 490.217V428.764C439.295 425.826 438.119 423.009 436.026 420.933C433.932 418.856 431.093 417.689 428.133 417.689H291.568C288.608 417.689 285.769 418.856 283.675 420.933C281.582 423.01 280.406 425.827 280.406 428.764V464.74C280.406 467.677 281.582 470.494 283.676 472.571C285.769 474.648 288.608 475.814 291.568 475.814Z" fill="#2E8BC0"/>
<path opacity="0.11" d="M291.568 475.814H419.914L439.295 490.217V428.764C439.295 425.826 438.119 423.009 436.026 420.933C433.932 418.856 431.093 417.689 428.133 417.689H291.568C288.608 417.689 285.769 418.856 283.675 420.933C281.582 423.01 280.406 425.827 280.406 428.764V464.74C280.406 467.677 281.582 470.494 283.676 472.571C285.769 474.648 288.608 475.814 291.568 475.814Z" fill="white"/>
<path d="M425.615 433.875H294.086C293.958 433.875 293.835 433.824 293.744 433.734C293.654 433.644 293.603 433.522 293.603 433.395C293.603 433.268 293.654 433.146 293.744 433.056C293.835 432.966 293.958 432.915 294.086 432.915H425.615C425.743 432.915 425.866 432.966 425.957 433.056C426.047 433.146 426.098 433.268 426.098 433.395C426.098 433.522 426.047 433.644 425.957 433.734C425.866 433.824 425.743 433.875 425.615 433.875Z" fill="white"/>
<path d="M425.615 448.332H294.086C293.958 448.332 293.834 448.281 293.743 448.191C293.652 448.1 293.601 447.978 293.601 447.85C293.601 447.722 293.652 447.6 293.743 447.509C293.834 447.419 293.958 447.368 294.086 447.368H425.615C425.743 447.368 425.867 447.419 425.958 447.509C426.049 447.6 426.1 447.722 426.1 447.85C426.1 447.978 426.049 448.1 425.958 448.191C425.867 448.281 425.743 448.332 425.615 448.332Z" fill="white"/>
<path d="M425.615 462.783H347.5C347.371 462.783 347.248 462.733 347.156 462.642C347.065 462.552 347.014 462.429 347.014 462.301C347.014 462.174 347.065 462.051 347.156 461.961C347.248 461.87 347.371 461.819 347.5 461.819H425.615C425.743 461.819 425.867 461.87 425.958 461.961C426.049 462.051 426.1 462.174 426.1 462.301C426.1 462.429 426.049 462.552 425.958 462.642C425.867 462.733 425.743 462.783 425.615 462.783Z" fill="white"/>
<path d="M291.568 277.613H419.914L439.295 292.017V216.852C439.295 213.915 438.119 211.098 436.026 209.021C433.932 206.944 431.093 205.777 428.133 205.777H291.568C288.608 205.777 285.769 206.944 283.675 209.021C281.582 211.098 280.406 213.915 280.406 216.852V266.538C280.406 269.475 281.582 272.292 283.675 274.369C285.769 276.446 288.608 277.613 291.568 277.613Z" fill="#2E8BC0"/>
<path opacity="0.11" d="M291.568 277.613H419.914L439.295 292.017V216.852C439.295 213.915 438.119 211.098 436.026 209.021C433.932 206.944 431.093 205.777 428.133 205.777H291.568C288.608 205.777 285.769 206.944 283.675 209.021C281.582 211.098 280.406 213.915 280.406 216.852V266.538C280.406 269.475 281.582 272.292 283.675 274.369C285.769 276.446 288.608 277.613 291.568 277.613Z" fill="#2E8BC0"/>
<path d="M425.615 235.674H294.086C293.958 235.674 293.835 235.623 293.744 235.533C293.654 235.443 293.603 235.321 293.603 235.194C293.603 235.067 293.654 234.945 293.744 234.855C293.835 234.765 293.958 234.714 294.086 234.714H425.615C425.678 234.714 425.741 234.726 425.8 234.751C425.858 234.775 425.912 234.81 425.957 234.855C426.002 234.899 426.037 234.952 426.061 235.01C426.086 235.068 426.098 235.131 426.098 235.194C426.098 235.257 426.086 235.319 426.061 235.378C426.037 235.436 426.002 235.489 425.957 235.533C425.912 235.578 425.858 235.613 425.8 235.637C425.741 235.661 425.678 235.674 425.615 235.674Z" fill="white"/>
<path d="M425.615 221.963H294.086C293.958 221.963 293.835 221.913 293.744 221.823C293.654 221.733 293.603 221.611 293.603 221.483C293.603 221.356 293.654 221.234 293.744 221.144C293.835 221.054 293.958 221.004 294.086 221.004H425.615C425.743 221.004 425.866 221.054 425.957 221.144C426.047 221.234 426.098 221.356 426.098 221.483C426.098 221.611 426.047 221.733 425.957 221.823C425.866 221.913 425.743 221.963 425.615 221.963Z" fill="white"/>
<path d="M425.615 250.128H294.086C293.958 250.128 293.834 250.077 293.743 249.987C293.652 249.896 293.601 249.774 293.601 249.646C293.601 249.518 293.652 249.396 293.743 249.305C293.834 249.215 293.958 249.164 294.086 249.164H425.615C425.743 249.164 425.867 249.215 425.958 249.305C426.049 249.396 426.1 249.518 426.1 249.646C426.1 249.774 426.049 249.896 425.958 249.987C425.867 250.077 425.743 250.128 425.615 250.128Z" fill="white"/>
<path d="M425.615 264.582H347.5C347.371 264.582 347.248 264.531 347.156 264.441C347.065 264.351 347.014 264.228 347.014 264.1C347.014 263.973 347.065 263.85 347.156 263.76C347.248 263.669 347.371 263.618 347.5 263.618H425.615C425.743 263.618 425.867 263.669 425.958 263.76C426.049 263.85 426.1 263.973 426.1 264.1C426.1 264.228 426.049 264.351 425.958 264.441C425.867 264.531 425.743 264.582 425.615 264.582Z" fill="white"/>
<path d="M392.475 378.851H239.85L220.469 393.254V330.353C220.469 327.416 221.645 324.599 223.739 322.522C225.832 320.445 228.671 319.278 231.631 319.278H392.475C395.435 319.278 398.274 320.445 400.367 322.522C402.461 324.599 403.637 327.416 403.637 330.353V367.776C403.637 369.23 403.348 370.671 402.787 372.014C402.226 373.358 401.404 374.579 400.367 375.607C399.331 376.636 398.1 377.451 396.746 378.008C395.392 378.564 393.94 378.851 392.475 378.851Z" fill="#B1D4E0"/>
<path opacity="0.49" d="M403.637 378.851H239.85L220.469 393.254V319.28H403.637V378.851Z" fill="white"/>
<path d="M389.956 335.466H234.15C234.021 335.466 233.897 335.415 233.806 335.325C233.715 335.235 233.664 335.112 233.664 334.984C233.664 334.856 233.715 334.734 233.806 334.643C233.897 334.553 234.021 334.502 234.15 334.502H389.956C390.085 334.502 390.209 334.553 390.3 334.643C390.391 334.734 390.442 334.856 390.442 334.984C390.442 335.112 390.391 335.235 390.3 335.325C390.209 335.415 390.085 335.466 389.956 335.466Z" fill="white"/>
<path d="M389.956 349.92H234.15C234.021 349.92 233.897 349.869 233.806 349.779C233.715 349.689 233.664 349.566 233.664 349.438C233.664 349.311 233.715 349.188 233.806 349.098C233.897 349.007 234.021 348.956 234.15 348.956H389.956C390.085 348.956 390.209 349.007 390.3 349.098C390.391 349.188 390.442 349.311 390.442 349.438C390.442 349.566 390.391 349.689 390.3 349.779C390.209 349.869 390.085 349.92 389.956 349.92Z" fill="white"/>
<path d="M312.264 364.652H234.15C234.021 364.652 233.898 364.602 233.808 364.512C233.717 364.422 233.666 364.3 233.666 364.172C233.666 364.045 233.717 363.923 233.808 363.833C233.898 363.743 234.021 363.692 234.15 363.692H312.264C312.393 363.692 312.516 363.743 312.606 363.833C312.697 363.923 312.748 364.045 312.748 364.172C312.748 364.3 312.697 364.422 312.606 364.512C312.516 364.602 312.393 364.652 312.264 364.652Z" fill="white"/>
<path d="M432.806 543.049H227.932C225.071 543.049 222.328 541.921 220.305 539.914C218.283 537.907 217.147 535.185 217.147 532.347V521.618C217.147 518.779 218.283 516.057 220.306 514.05C222.329 512.043 225.072 510.915 227.933 510.915H432.806C435.667 510.915 438.41 512.043 440.433 514.05C442.456 516.057 443.592 518.779 443.592 521.618V532.347C443.592 535.185 442.456 537.907 440.433 539.914C438.41 541.922 435.667 543.049 432.806 543.049ZM227.932 511.88C226.642 511.88 225.366 512.131 224.175 512.62C222.984 513.11 221.902 513.827 220.99 514.731C220.078 515.635 219.355 516.709 218.862 517.891C218.368 519.072 218.114 520.339 218.114 521.618V532.347C218.114 534.93 219.148 537.407 220.989 539.233C222.83 541.059 225.326 542.085 227.929 542.085H432.806C435.409 542.085 437.906 541.059 439.746 539.233C441.587 537.407 442.621 534.93 442.621 532.347V521.618C442.621 519.035 441.587 516.558 439.746 514.732C437.905 512.906 435.409 511.88 432.806 511.88H227.932Z" fill="#367CFF"/>
<path d="M415.418 520.061L419.182 526.298L433.756 520.017L420.619 528.679L425.106 536.112L436.505 518.721L415.418 520.061Z" fill="#0CBC8B"/>
</g>
<defs>
<clipPath id="clip0_2_27">
<rect width="586" height="614" fill="white"/>
</clipPath>
</defs>
</svg>
